# xmcd
#
# Track frame offsets:
#	150
#	16786
#	37307
#	56185
#	74475
#	94327
#	112275
#	131027
#	149189
#	167641
#	183343
#	201772
#	221403
#	239363
#	255141
#	274554
#	293878
#	312043
#
# Disc length: 4374 seconds
#
# Revision: 0
# Processed by: cddbd v1.5.2PL0 Copyright (c) Steve Scherf et al.
# Submitted via: dBpowerAMP V4.0
#
DISCID=1b111412
DTITLE=Various Artist - Top Hits USA RA58
DYEAR=1900
DGENRE=
TTITLE0=Tina Turner - When The Heartache is Over
TTITLE1=Garth Brooks - The Way I Remember It
TTITLE2=Faith Hill - Breathe
TTITLE3=Robbie Williams - Angels
TTITLE4=Whitney Houston - I Learned From The Best (Radio Edit)
TTITLE5=Backstreet Boys - Show me The Meaning of Being Lonely
TTITLE6=Alanis Morissette - That I Would be Good
TTITLE7=Blessid Union Of Souls - Standing at The Edge of The Earth (Radio Edit)
TTITLE8=Vertical Horizon - Everything You Want (Radio Mix)
TTITLE9=Alison Krauss - Stay
TTITLE10=Sugar Ray - Falls Apart (New Radio Edit)
TTITLE11=Mariah Carey with Joe and 98 Degrees - Thank God I Found You
TTITLE12=Robert Palmer - Let's Get it On
TTITLE13=Christina Aguilera - What a Girl Wants (Smooth Mix)
TTITLE14=Filter - Take a Picture (h&h Remix)
TTITLE15=R.E.M. - The Great Beyond (Radio Edit)
TTITLE16=Foo Fighters - Learn to Fly
TTITLE17=Eiffel 65 - Blue (da ba Dee) (Radio Edit)
EXTD=
EXTT0=
EXTT1=
EXTT2=
EXTT3=
EXTT4=
EXTT5=
EXTT6=
EXTT7=
EXTT8=
EXTT9=
EXTT10=
EXTT11=
EXTT12=
EXTT13=
EXTT14=
EXTT15=
EXTT16=
EXTT17=
PLAYORDER=
